<svg width="110" height="110" viewBox="0 0 110 110" fill="none" xmlns="http://www.w3.org/2000/svg">
<path d="M26.8311 72.81C27.3874 73.6648 27.5762 74.4204 27.3975 75.0769C27.2166 75.7299 26.6614 76.3587 25.7321 76.9634L24.817 77.5589L23.6122 75.7074L24.7827 74.9457C24.999 74.805 25.1485 74.6622 25.2311 74.5176C25.3079 74.3717 25.2931 74.2172 25.187 74.0541C25.0762 73.8838 24.9504 73.7991 24.8095 73.7999C24.6663 73.7971 24.4812 73.8696 24.2542 74.0173C23.9669 74.2043 23.746 74.3884 23.5914 74.5698C23.4332 74.7535 23.3134 74.9729 23.232 75.2278C23.1446 75.4816 23.0647 75.8087 22.9922 76.2094L22.7411 77.5693C22.5573 78.5826 22.0841 79.3373 21.3216 79.8335C20.5235 80.3529 19.7952 80.5643 19.1366 80.4678C18.4757 80.3677 17.9168 79.9665 17.4598 79.2642C16.9012 78.4059 16.7342 77.6487 16.9586 76.9927C17.1807 76.3332 17.7582 75.6999 18.691 75.0929L19.9305 76.9976L19.2867 77.4165C19.159 77.4996 19.0839 77.6014 19.0615 77.7221C19.0367 77.8392 19.0647 77.9598 19.1455 78.084C19.2424 78.2329 19.3565 78.3152 19.4878 78.3307C19.6133 78.345 19.7416 78.3095 19.8728 78.2241C20.0041 78.1387 20.1229 78.0109 20.2292 77.8407C20.3356 77.6705 20.42 77.4162 20.4824 77.0776L20.8171 75.3225C20.882 74.9723 20.9709 74.6317 21.0837 74.3008C21.193 73.9721 21.3644 73.6536 21.5979 73.3452C21.8278 73.039 22.1609 72.744 22.5972 72.4601C23.4768 71.8877 24.2729 71.6019 24.9853 71.6028C25.6919 71.6024 26.3072 72.0048 26.8311 72.81ZM24.6084 69.1472L16.3431 72.7749L16.8763 73.9897L14.9117 74.8519L12.9473 70.3763L14.912 69.5141L15.4451 70.7289L23.7105 67.1012L24.6084 69.1472ZM23.1482 65.7418L12.0523 67.4315L11.1242 63.7574L21.6963 59.9937L22.214 62.0431L20.505 62.6384L20.8345 63.9431L22.6166 63.6371L23.1482 65.7418ZM19.0663 64.2261L18.8176 63.2414L13.4291 65.1066L13.454 65.205L19.0663 64.2261ZM21.6219 59.3246L10.4709 60.0072L10.2614 56.5858C10.2265 56.0156 10.3311 55.5768 10.5751 55.2693C10.815 54.9621 11.1663 54.7455 11.6292 54.6197C12.0876 54.4899 12.6315 54.4057 13.2609 54.3672C13.8691 54.3299 14.3597 54.3784 14.7325 54.5124C15.105 54.6422 15.3741 54.9162 15.5396 55.3343C15.5899 54.9793 15.7502 54.7236 16.0204 54.5671C16.2862 54.4067 16.6387 54.313 17.078 54.2861L21.2977 54.0279L21.4322 56.2264L17.0669 56.4936C16.7416 56.5135 16.5451 56.5934 16.4774 56.7332C16.4051 56.869 16.3781 57.0848 16.3962 57.3805L21.4838 57.069L21.6219 59.3246ZM14.463 57.4861L14.43 56.9475C14.4111 56.6392 14.0659 56.5056 13.3943 56.5467C12.9592 56.5733 12.6762 56.6246 12.5452 56.7004C12.4141 56.7763 12.3543 56.9071 12.3657 57.093L12.3975 57.6125L14.463 57.4861ZM21.4324 52.1991L12.4597 51.2165L12.3153 52.5352L10.1825 52.3017L10.7146 47.443L12.8474 47.6766L12.7029 48.9954L21.6757 49.978L21.4324 52.1991ZM22.7175 45.1135L12.3161 41.0365L13.4373 38.1761C13.7307 37.4275 14.1604 36.946 14.7263 36.7314C15.2882 36.5153 15.9691 36.5641 16.7689 36.8776L21.6386 38.7864C22.6236 39.1724 23.316 39.6439 23.716 40.2006C24.1174 40.7534 24.1491 41.4612 23.8109 42.3241L22.7175 45.1135ZM21.6995 42.301L21.8408 41.9405C21.9906 41.5583 21.8804 41.2947 21.51 41.1495L16.1439 39.0461C15.7971 38.9102 15.556 38.8702 15.4205 38.9262C15.2825 38.9766 15.1579 39.1437 15.0467 39.4274L14.9564 39.6579L21.6995 42.301ZM25.1312 39.1922L15.5999 33.3642L17.9311 29.5517L19.7724 30.6776L18.6266 32.5513L20.4841 33.6871L21.5835 31.8892L23.376 32.9852L22.2767 34.7832L24.4591 36.1177L25.681 34.1193L27.5385 35.2551L25.1312 39.1922ZM29.9373 32.3442L22.6772 23.8529L25.2632 21.6419L30.4034 26.2081L26.6864 20.425L29.2965 18.1933L36.5566 26.6846L35.0031 28.0129L29.7726 21.8953L34.0286 28.8461L32.504 30.1496L26.241 24.9148L31.4715 31.0324L29.9373 32.3442ZM37.0769 26.299L32.9948 15.8438L36.376 14.1326L42.3667 23.6218L40.4807 24.5763L39.5251 23.0395L38.3244 23.6472L39.0139 25.3187L37.0769 26.299ZM37.6605 21.9841L38.5667 21.5254L35.5652 16.6772L35.4745 16.7231L37.6605 21.9841ZM43.7695 23.1831L41.0911 14.5632L39.8242 14.9569L39.1876 12.908L43.8551 11.4577L44.4918 13.5066L43.2249 13.9002L45.9033 22.52L43.7695 23.1831ZM50.3696 21.7778C49.5686 21.8856 48.8891 21.723 48.3312 21.29C47.7775 20.8564 47.4403 20.1908 47.3195 19.2933L46.6319 14.1851C46.4874 13.1114 46.5885 12.2609 46.9354 11.6335C47.2864 11.0056 47.9421 10.627 48.9025 10.4977C49.4267 10.4271 49.9052 10.4609 50.338 10.5991C50.775 10.7367 51.1369 10.9826 51.4237 11.3368C51.7099 11.6869 51.8923 12.1534 51.9707 12.7363L52.2282 14.6488L50.0263 14.9451L49.8062 13.3095C49.7616 12.9782 49.6897 12.7615 49.5906 12.6596C49.4909 12.5534 49.353 12.5122 49.1768 12.5359C48.9713 12.5636 48.8431 12.6577 48.7921 12.8183C48.7406 12.9747 48.7315 13.1766 48.7648 13.424L49.5108 18.9663C49.552 19.2725 49.6251 19.4826 49.7301 19.5965C49.8393 19.7099 49.9778 19.7553 50.1456 19.7328C50.3343 19.7074 50.456 19.612 50.5106 19.4466C50.5694 19.2807 50.5821 19.0741 50.5488 18.8266L50.2804 16.8324L52.5074 16.5326L52.7893 18.6275C52.9203 19.6005 52.7701 20.3402 52.3387 20.8466C51.9067 21.3489 51.2503 21.6592 50.3696 21.7778ZM53.8855 21.2961L54.5061 10.1415L56.7243 10.2649L56.5025 14.2514L57.5546 14.3099L57.7764 10.3234L59.9946 10.4468L59.3741 21.6015L57.1558 21.478L57.4372 16.4204L56.3851 16.3619L56.1037 21.4195L53.8855 21.2961ZM82.2852 36.0552C81.7078 35.2146 81.5002 34.4639 81.6625 33.8031C81.8271 33.1459 82.3664 32.5034 83.2803 31.8757L84.1803 31.2576L85.4309 33.0784L84.2798 33.869C84.067 34.0152 83.9211 34.1616 83.8421 34.3082C83.7691 34.456 83.7876 34.6101 83.8978 34.7705C84.0128 34.938 84.1407 35.0195 84.2815 35.0152C84.4247 35.0144 84.6079 34.9374 84.8312 34.784C85.1137 34.59 85.33 34.4003 85.4801 34.2151C85.6336 34.0276 85.7479 33.8053 85.823 33.5484C85.9039 33.2926 85.9757 32.9635 86.0382 32.5612L86.2552 31.1954C86.4137 30.1779 86.8679 29.4116 87.6179 28.8965C88.4028 28.3574 89.1256 28.1279 89.7864 28.208C90.4495 28.2915 91.0183 28.6786 91.4927 29.3693C92.0725 30.2135 92.2584 30.9662 92.0504 31.6276C91.8448 32.2925 91.2833 32.94 90.3659 33.5701L89.0793 31.6969L89.7124 31.262C89.838 31.1758 89.9105 31.0721 89.93 30.9509C89.9518 30.8332 89.9208 30.7133 89.8369 30.5912C89.7363 30.4447 89.6202 30.3654 89.4886 30.3531C89.3628 30.3419 89.2354 30.3807 89.1063 30.4693C88.9773 30.5579 88.8617 30.6887 88.7596 30.8615C88.6575 31.0342 88.5795 31.2906 88.5255 31.6306L88.2347 33.3935C88.1786 33.7453 88.0982 34.088 87.9937 34.4216C87.8926 34.7528 87.7292 35.0755 87.5035 35.3897C87.2813 35.7015 86.9556 36.0047 86.5266 36.2994C85.6615 36.8936 84.8728 37.1991 84.1605 37.216C83.4542 37.234 82.8291 36.8471 82.2852 36.0552ZM84.5951 39.6626L92.7767 35.8499L92.2163 34.6474L94.161 33.7411L96.2256 38.1714L94.2809 39.0776L93.7205 37.8751L85.5389 41.6879L84.5951 39.6626ZM86.1316 43.0354L97.1912 41.1218L98.1933 44.7764L87.6994 48.753L87.1404 46.7145L88.837 46.0848L88.4812 44.787L86.7057 45.129L86.1316 43.0354ZM90.2433 44.4683L90.5119 45.4478L95.8616 43.4741L95.8347 43.3762L90.2433 44.4683ZM87.7882 49.4212L98.9219 48.4992L99.2048 51.9153C99.2519 52.4846 99.1568 52.9256 98.9194 53.2382C98.6863 53.5505 98.3397 53.7746 97.8796 53.9103C97.424 54.05 96.8821 54.1458 96.2537 54.1978C95.6464 54.2481 95.155 54.2103 94.7793 54.0842C94.4041 53.9625 94.1292 53.6943 93.9548 53.2799C93.9121 53.6359 93.7573 53.895 93.4905 54.0572C93.2282 54.2233 92.8778 54.3245 92.4392 54.3608L88.2261 54.7097L88.0443 52.5146L92.4029 52.1537C92.7277 52.1268 92.9224 52.0427 92.9871 51.9015C93.0564 51.7641 93.0789 51.5478 93.0544 51.2526L87.9746 51.6732L87.7882 49.4212ZM94.9849 51.1055L95.0294 51.6432C95.0549 51.951 95.403 52.0772 96.0735 52.0217C96.5079 51.9857 96.7898 51.9284 96.9191 51.8497C97.0485 51.7711 97.1055 51.639 97.0901 51.4534L97.0472 50.9347L94.9849 51.1055ZM88.131 56.54L97.123 57.3269L97.2387 56.0053L99.376 56.1923L98.9499 61.0614L96.8126 60.8743L96.9282 59.5527L87.9362 58.7659L88.131 56.54ZM87.0039 63.6508L97.4931 67.4965L96.4355 70.381C96.1587 71.1359 95.7399 71.6268 95.1789 71.8538C94.6218 72.0823 93.9401 72.0487 93.1335 71.753L88.2227 69.9525C87.2294 69.5884 86.5267 69.1324 86.1145 68.5847C85.7009 68.0409 85.6536 67.334 85.9726 66.4638L87.0039 63.6508ZM88.0839 66.4401L87.9506 66.8037C87.8093 67.1891 87.9254 67.4502 88.2989 67.5872L93.7103 69.5711C94.06 69.6993 94.3019 69.734 94.4362 69.675C94.573 69.6215 94.6939 69.4517 94.7987 69.1657L94.884 68.9332L88.0839 66.4401ZM84.7227 69.6233L94.3854 75.2307L92.1425 79.0958L90.2758 78.0125L91.3782 76.1129L89.4951 75.0201L88.4373 76.8428L86.6201 75.7883L87.6778 73.9655L85.4653 72.6816L84.2896 74.7074L82.4065 73.6146L84.7227 69.6233ZM80.0693 76.5746L87.5141 84.9043L84.9773 87.1716L79.738 82.7193L83.5811 88.4195L81.0207 90.7079L73.5758 82.3781L75.0998 81.0161L80.4635 87.0173L76.0558 80.1616L77.5514 78.8249L83.9279 83.9209L78.5642 77.9197L80.0693 76.5746ZM73.0655 82.7741L77.3875 93.1325L74.0467 94.9212L67.8388 85.5726L69.7023 84.5749L70.6931 86.0892L71.8794 85.454L71.1516 83.7989L73.0655 82.7741ZM72.5815 87.1014L71.6861 87.5808L74.7987 92.3585L74.8882 92.3106L72.5815 87.1014ZM66.4461 86.0396L69.3005 94.6028L70.559 94.1833L71.2375 96.2187L66.6006 97.7643L65.9222 95.7289L67.1807 95.3094L64.3264 86.7462L66.4461 86.0396ZM59.8774 87.5827C60.6759 87.4577 61.3587 87.6056 61.9258 88.0265C62.4887 88.4481 62.8402 89.1062 62.9803 90.0009L63.7778 95.0932C63.9454 96.1634 63.8626 97.0159 63.5294 97.6507C63.192 98.286 62.5446 98.6787 61.5872 98.8286C61.0646 98.9105 60.5854 98.887 60.1498 98.7582C59.7099 98.63 59.3428 98.392 59.0485 98.044C58.7548 97.7002 58.5624 97.2377 58.4714 96.6566L58.1728 94.7502L60.3678 94.4064L60.6231 96.0369C60.6748 96.3672 60.7513 96.5823 60.8526 96.682C60.9546 96.786 61.0934 96.8242 61.269 96.7968C61.4738 96.7647 61.6 96.6678 61.6475 96.5062C61.6957 96.3487 61.7004 96.1466 61.6618 95.9L60.7966 90.375C60.7488 90.0698 60.6711 89.8614 60.5637 89.7497C60.4521 89.6387 60.3127 89.5963 60.1454 89.6225C59.9573 89.6519 59.8377 89.7499 59.7867 89.9164C59.7315 90.0835 59.7232 90.2904 59.7618 90.5371L60.0731 92.5251L57.8531 92.8727L57.5261 90.7844C57.3742 89.8145 57.5084 89.0717 57.9288 88.5561C58.3499 88.0447 58.9994 87.7202 59.8774 87.5827ZM56.3731 88.1405L56.004 99.3062L53.7835 99.2328L53.9155 95.2423L52.8623 95.2075L52.7304 99.198L50.5099 99.1246L50.8791 87.9588L53.0995 88.0323L52.9322 93.0949L53.9853 93.1297L54.1527 88.0671L56.3731 88.1405Z" fill="#FF5206"/>
</svg>
